<svg xmlns="http://www.w3.org/2000/svg" viewBox="0 0 64 64" width="64" height="64" fill="none">
  <!-- Outer Calibrated Disk Track -->
  <circle cx="32" cy="32" r="29" stroke="#A7F3D0" stroke-width="1.2" stroke-dasharray="3 2" />
  <circle cx="32" cy="32" r="26" stroke="#1E3A2B" stroke-width="1.8" />

  <!-- 8 Calibration Sector Ticks -->
  <line x1="32" y1="2" x2="32" y2="7.5" stroke="#10B981" stroke-width="2.2" stroke-linecap="round" />
  <line x1="32" y1="56.5" x2="32" y2="62" stroke="#10B981" stroke-width="2.2" stroke-linecap="round" />
  <line x1="2" y1="32" x2="7.5" y2="32" stroke="#10B981" stroke-width="2.2" stroke-linecap="round" />
  <line x1="56.5" y1="32" x2="62" y2="32" stroke="#10B981" stroke-width="2.2" stroke-linecap="round" />
  
  <line x1="10.5" y1="10.5" x2="14.5" y2="14.5" stroke="#5C7667" stroke-width="1.5" stroke-linecap="round" />
  <line x1="49.5" y1="49.5" x2="53.5" y2="53.5" stroke="#5C7667" stroke-width="1.5" stroke-linecap="round" />
  <line x1="10.5" y1="53.5" x2="14.5" y2="49.5" stroke="#5C7667" stroke-width="1.5" stroke-linecap="round" />
  <line x1="49.5" y1="14.5" x2="53.5" y2="10.5" stroke="#5C7667" stroke-width="1.5" stroke-linecap="round" />

  <!-- Drishti: Geometric Surveillance Aperture -->
  <path d="M 8 32 C 16 16, 48 16, 56 32 C 48 48, 16 48, 8 32 Z" 
        stroke="#1E3A2B" stroke-width="2.2" fill="#D1FAE5" fill-opacity="0.6" stroke-linejoin="round" />

  <!-- Inner Shutter Iris -->
  <circle cx="32" cy="32" r="14" stroke="#10B981" stroke-width="2" fill="#FFFFFF" />
  
  <!-- Dotted Inner Focal Ring -->
  <circle cx="32" cy="32" r="10" stroke="#5C7667" stroke-width="1.2" stroke-dasharray="2 2" />

  <!-- Core Forensic Lens Sensor -->
  <circle cx="32" cy="32" r="6" fill="#1E3A2B" stroke="#10B981" stroke-width="1.8" />
  <circle cx="32" cy="32" r="2.2" fill="#10B981" />

  <!-- Glare Reflex -->
  <circle cx="30" cy="30" r="1" fill="#FFFFFF" />
</svg>
